# xmcd
#
# Track frame offsets:
#	150
#	15075
#	29260
#	44785
#	59122
#	74090
#	88397
#	102377
#	116682
#	129065
#	142885
#	159420
#	173085
#	185992
#	200040
#	214515
#	228312
#	242207
#	255775
#	269080
#	281380
#	293230
#	307025
#	320607
#	332737
#
# Disc length: 4591 seconds
# Revision: 2
# Processed by: cddbd v1.5.2PL0 Copyright (c) Steve Scherf et al.
# Submitted via: dBpowerAMP V12.0
#
DISCID=8111ed19
DTITLE=Various Artist - Rare Country Blues 1928-1937
DYEAR=1928
DGENRE=Blues
TTITLE0=Seth Richard - Lonely Seth Blues
TTITLE1=Seth Richard - Skoodeldum Doo
TTITLE2=Charlie Kyle - Kyle's Worried Blues
TTITLE3=Charlie Kyle - Monkey Man Blues
TTITLE4=Charlie Kyle - Walking Blues
TTITLE5=Charlie Kyle - No Baby
TTITLE6=Freezone - Indian Squaw Blues
TTITLE7=Willie Harris - West Side Blues
TTITLE8=Willie Harris - What Makes a Tom Cat Blue?
TTITLE9=Willie Harris - Lonesome Midnight Dream
TTITLE10=Willie Harris - Never Drive a Stranger from Your Door
TTITLE11=Leola Manning - He Cares for Me
TTITLE12=Leola Manning - He Fans Me
TTITLE13=Leola Manning - The Arcade Building Moan
TTITLE14=Leola Manning - Satan Is Busy in Knoxville
TTITLE15=Leola Manning - Laying in the Graveyard
TTITLE16=Leola Manning - The Blues Is All Wrong
TTITLE17=Jazzbo Tommy Settlers - Low Down Blues Moan (Pt. 1)
TTITLE18=Jazzbo Tommy Settlers - Low Down Blues Moan (Pt. 2)
TTITLE19=Jazzbo Tommy Settlers - Shaking Weed Blues
TTITLE20=Jazzbo Tommy Settlers - Big Bed Bug (Bed Bug Blues)
TTITLE21=Jazzbo Tommy Settlers - Pearlie Mae Blues
TTITLE22=Jazzbo Tommy Settlers - Don't Want You No More
TTITLE23=Jazzbo Tommy Settlers - You Don't Mean Me No Good
TTITLE24=Jazzbo Tommy Settlers - Blaze Face Cow
EXTD=
EXTT0=
EXTT1=
EXTT2=
EXTT3=
EXTT4=
EXTT5=
EXTT6=
EXTT7=
EXTT8=
EXTT9=
EXTT10=
EXTT11=
EXTT12=
EXTT13=
EXTT14=
EXTT15=
EXTT16=
EXTT17=
EXTT18=
EXTT19=
EXTT20=
EXTT21=
EXTT22=
EXTT23=
EXTT24=
PLAYORDER=
